<?xml version="1.0" encoding="utf-8"?>
<!-- Generator: Adobe Illustrator 18.0.0, SVG Export Plug-In . SVG Version: 6.00 Build 0)  -->
<!DOCTYPE svg PUBLIC "-//W3C//DTD SVG 1.1//EN" "http://www.w3.org/Graphics/SVG/1.1/DTD/svg11.dtd">
<svg version="1.1" id="Capa_1" focusable="false" xmlns="http://www.w3.org/2000/svg" xmlns:xlink="http://www.w3.org/1999/xlink"
	 x="0px" y="0px" viewBox="0 0 300 300" enable-background="new 0 0 300 300" xml:space="preserve">
<path d="M288.2,105.1C268.2,43.7,211.3,4.7,150.1,4.7c-14.9,0-30,2.3-44.9,7.1c-76.3,24.8-118.1,106.8-93.3,183
	c19.9,61.4,76.9,100.4,138.1,100.4c14.9,0,30-2.3,44.9-7.1C271.2,263.4,312.9,181.4,288.2,105.1z M252.1,227.4l-36.9,4.3l-30.9-41.3
	l17.2-51.1l50.2-15l27.5,24.7c-0.1,20.8-5.2,41.5-15.3,60.6C260.6,216,256.4,221.7,252.1,227.4L252.1,227.4z M252,77l-6.7,35.1
	l-45.6,14.5l-41.4-30.7V47.2l30.5-17.3C214.2,38.4,236.2,55,252,77L252,77z M112.6,31.9l32.1,16.9v47.8l-43.7,30.1l-48.1-14.2
	l-6.9-34C62.5,56.8,85.4,40.5,112.6,31.9z M82,226.9l-36.1-4.4c-9.8-13.5-25.4-40-25.7-77.4l26.5-24.4l48.4,14.9l16.5,49.9L82,226.9
	L82,226.9z M109,275.9L95,240l27.2-46h49l27.6,46l-14,35.9C181,277.3,148.9,291.2,109,275.9z"/>
</svg>
